<?xml version="1.0" encoding="UTF-8" standalone="no"?>
<!DOCTYPE svg PUBLIC "-//W3C//DTD SVG 1.1//EN" "http://www.w3.org/Graphics/SVG/1.1/DTD/svg11.dtd">
<svg width="100%" height="100%" viewBox="0 0 806 774" version="1.1" xmlns="http://www.w3.org/2000/svg" xmlns:xlink="http://www.w3.org/1999/xlink" xml:space="preserve" xmlns:serif="http://www.serif.com/" style="fill-rule:evenodd;clip-rule:evenodd;stroke-linejoin:round;stroke-miterlimit:2;">
    <g id="Calque1">
        <path d="M173.5,34.5C186.98,34.64 200.313,36.14 213.5,39C221.505,43.17 229.839,46.503 238.5,49C245.45,53.932 252.45,58.932 259.5,64C261.608,64.36 263.608,65.027 265.5,66C267.17,68.559 269.503,70.225 272.5,71C273.743,72.155 274.743,73.488 275.5,75C277.246,75.471 278.913,76.138 280.5,77C284.905,81.283 289.405,85.45 294,89.5C305.119,84.844 316.619,81.344 328.5,79C344.558,75.751 360.725,73.584 377,72.5C390.836,72.936 404.669,73.436 418.5,74C429.109,76.436 439.776,78.436 450.5,80C454.832,82.499 459.499,83.832 464.5,84C468.298,87.186 472.632,88.186 477.5,87C500.815,66.85 526.482,50.516 554.5,38C569.386,34.521 584.386,33.855 599.5,36C609.939,40.106 617.439,47.273 622,57.5C629.045,87.23 630.379,117.23 626,147.5C621.997,162.846 617.997,178.179 614,193.5C609.779,200.312 606.613,207.645 604.5,215.5C614.373,237.077 628.04,255.91 645.5,272C648.18,274.681 651.346,276.514 655,277.5C655.945,277.095 656.612,276.428 657,275.5C658.168,271.494 659.335,267.494 660.5,263.5C641.753,227.497 645.253,193.831 671,162.5C682.491,151.016 694.991,140.849 708.5,132C723.663,118.325 735.663,102.325 744.5,84C748.629,82.269 752.796,82.102 757,83.5C774.063,117.584 783.23,153.751 784.5,192C784.148,201.874 783.314,211.707 782,221.5C778.818,231.018 775.152,240.351 771,249.5C761.589,263.248 749.422,273.748 734.5,281C730.703,281.366 727.537,282.866 725,285.5C711.635,332.93 697.635,380.264 683,427.5C679.085,439.647 674.918,451.647 670.5,463.5C688.237,475.837 694.737,492.837 690,514.5C685.276,528.453 678.11,540.953 668.5,552C658.687,560.165 647.52,565.665 635,568.5C634.556,572.807 632.889,576.473 630,579.5C626.851,587.613 624.517,595.947 623,604.5C616.897,613.476 613.564,623.476 613,634.5C611.846,635.743 610.512,636.743 609,637.5C603.475,649.408 599.142,661.741 596,674.5C594.341,675.817 593.174,677.483 592.5,679.5C601.009,684.167 608.842,689.833 616,696.5C625.707,707.442 628.04,719.776 623,733.5C620.079,737.092 616.579,739.925 612.5,742C447.836,743.441 283.169,743.774 118.5,743C105.972,740.782 102.972,734.115 109.5,723C125.265,721.335 140.932,719.669 156.5,718C153.172,716.834 149.839,715.668 146.5,714.5C144.632,717.054 142.299,716.554 139.5,713C140.167,712.667 140.833,712.333 141.5,712C119.989,704.41 101.656,692.076 86.5,675C86.833,674.667 87.167,674.333 87.5,674C73.117,659.406 62.117,642.573 54.5,623.5C53.372,622.738 52.205,622.071 51,621.5C40.834,588.833 38.167,555.499 43,521.5C45.668,506.819 48.334,492.152 51,477.5C54.699,454.644 50.366,433.644 38,414.5C36.711,409.035 38.211,404.535 42.5,401C51.33,396.804 60.663,394.637 70.5,394.5C116.135,397.385 150.968,418.052 175,456.5C180.494,467.153 185.16,478.153 189,489.5C199.026,468.604 211.193,449.104 225.5,431C188.113,410.289 154.113,384.955 123.5,355C108.01,337.032 95.01,317.365 84.5,296C85.112,293.942 86.112,292.109 87.5,290.5C120.922,275.247 146.088,251.247 163,218.5C164.25,215.923 164.584,213.257 164,210.5C144.629,174.319 135.962,135.652 138,94.5C139.573,83.819 141.24,73.152 143,62.5C147.959,47.37 158.126,38.036 173.5,34.5ZM608.5,385.5C609.695,385.866 610.361,386.699 610.5,388C600.338,414.986 590.671,442.152 581.5,469.5C558.861,466.177 540.861,455.177 527.5,436.5C556.757,422.726 583.757,405.726 608.5,385.5ZM533.5,576.5C537.846,576.334 542.179,576.501 546.5,577C544.081,585.839 541.581,594.672 539,603.5C537.003,594.516 535.17,585.516 533.5,576.5Z" style="fill:rgb(36,48,58);fill-opacity:0.99;"/>
        <path d="M555.5,629.5C558.835,617.829 562.168,606.162 565.5,594.5C567.414,587.089 569.747,579.756 572.5,572.5C577.519,555.117 582.519,537.784 587.5,520.5C589.696,517.575 591.029,514.242 591.5,510.5C599.104,490.107 606.104,469.441 612.5,448.5C613.117,448.389 613.617,448.056 614,447.5C622.203,424.39 630.703,401.39 639.5,378.5C649.571,381.846 659.571,385.179 669.5,388.5C662.773,412.682 655.439,436.682 647.5,460.5C623.007,458.163 611.507,469.163 613,493.5C614.353,495.88 615.519,498.38 616.5,501C611.79,506.251 607.957,512.084 605,518.5C604.333,524.167 604.333,529.833 605,535.5C606.634,538.48 608.3,541.48 610,544.5C612.885,547.048 615.385,549.882 617.5,553C597.348,605.765 576.181,658.265 554,710.5C550.934,716.9 546.434,722.067 540.5,726C537.975,726.896 535.808,726.396 534,724.5C532.158,718.217 532.158,711.883 534,705.5C540.838,680.159 548.004,654.826 555.5,629.5Z" style="fill:rgb(100,147,186);"/>
        <path d="M753.5,132.5C755.55,140.75 757.217,149.084 758.5,157.5C758.198,161.79 758.864,165.79 760.5,169.5C761.494,179.987 761.828,190.654 761.5,201.5C759.259,224.483 749.259,243.317 731.5,258C725.745,260.977 719.745,262.81 713.5,263.5C713.337,261.143 713.503,258.81 714,256.5C718.374,250.086 721.374,243.086 723,235.5C724.585,230.587 725.252,225.587 725,220.5C714.145,232.387 703.645,244.553 693.5,257C691.5,257.667 689.5,257.667 687.5,257C678.996,249.825 674.329,240.658 673.5,229.5C673.549,222.151 673.882,214.817 674.5,207.5C679.337,192.471 688.004,179.971 700.5,170C719.348,157.475 735.848,142.308 750,124.5C751.478,127.158 752.645,129.825 753.5,132.5Z" style="fill:rgb(99,146,186);"/>
        <path d="M451.5,439.5C450.909,440.151 450.243,440.818 449.5,441.5C454.401,448.566 460.901,453.566 469,456.5C480.839,453.416 492.506,449.749 504,445.5C504.902,445.743 505.735,446.077 506.5,446.5C519.737,466.222 537.404,480.722 559.5,490C564.035,491.74 568.702,492.906 573.5,493.5C566.998,512.672 560.998,532.006 555.5,551.5L529.5,551.5C525.752,538.742 518.752,528.075 508.5,519.5C507.667,522.658 508.001,525.658 509.5,528.5C510.127,533.141 510.46,537.807 510.5,542.5C509.361,538.699 508.528,534.699 508,530.5C507.93,537.873 508.596,545.206 510,552.5C512.275,579.881 511.775,607.214 508.5,634.5C508.667,636.167 508.833,637.833 509,639.5C509.186,636.964 509.686,634.631 510.5,632.5C508.474,656.813 501.974,679.813 491,701.5C488.071,706.369 484.904,711.035 481.5,715.5C480.167,717.5 478.5,719.167 476.5,720.5L453.5,720.5C458.081,712.19 463.081,704.023 468.5,696C482.07,666.665 490.237,635.831 493,603.5C496.555,559.72 492.055,516.886 479.5,475C477.644,470.786 475.644,466.62 473.5,462.5C472.672,461.585 471.672,460.919 470.5,460.5C453.019,471.384 434.019,478.217 413.5,481C394.493,482.137 375.993,479.637 358,473.5C356.033,473.542 354.199,474.042 352.5,475C350,478.167 347.5,481.333 345,484.5C337.371,505.054 333.871,526.387 334.5,548.5C335.125,567.288 336.958,585.955 340,604.5C344.245,618.018 348.245,631.685 352,645.5C354.379,658.497 354.879,671.497 353.5,684.5C347.333,682.112 341,680.112 334.5,678.5C334.833,676.5 335.167,674.5 335.5,672.5C339.821,654.633 339.487,636.967 334.5,619.5C329.22,601.356 319.22,586.189 304.5,574C297.824,570.662 293.324,565.495 291,558.5C290.667,548.833 290.333,539.167 290,529.5C287.095,525.673 284.095,525.673 281,529.5C277.221,534.723 274.221,540.39 272,546.5C266.979,561.025 270.479,572.858 282.5,582C298.435,592.748 309.101,607.248 314.5,625.5C316.398,631.389 317.398,637.555 317.5,644C317.067,650.531 316.4,657.031 315.5,663.5C313.854,668.573 311.52,673.406 308.5,678C303.027,679.316 298.027,681.482 293.5,684.5C286.51,687.662 280.177,691.829 274.5,697C294.323,693.005 313.99,693.672 333.5,699C335.066,699.608 336.4,700.442 337.5,701.5C336.761,701.369 336.094,701.536 335.5,702C342.063,705.956 345.396,711.789 345.5,719.5C305.477,719.939 265.477,719.439 225.5,718C220.438,713.726 215.938,708.893 212,703.5C211.536,704.094 211.369,704.761 211.5,705.5C203.152,692.969 196.485,679.469 191.5,665C188.771,654.073 186.437,643.24 184.5,632.5C182.918,613.118 183.418,593.784 186,574.5C188.228,564.193 190.395,553.859 192.5,543.5C200.431,520.294 210.597,497.961 223,476.5C230.71,463.796 239.543,451.962 249.5,441C261.287,444.813 273.287,448.48 285.5,452C301.478,458.263 316.311,456.43 330,446.5C331.438,445.1 332.271,443.433 332.5,441.5C372.407,450.053 412.074,449.386 451.5,439.5Z" style="fill:rgb(165,172,180);"/>
        <path d="M606.5,264.5C617.529,277.194 629.863,288.527 643.5,298.5C643.552,300.903 643.219,303.236 642.5,305.5C640.095,315.769 635.595,325.102 629,333.5C597.257,368.745 559.757,396.078 516.5,415.5C514.973,415.427 513.973,416.094 513.5,417.5C507.552,419.257 501.886,421.591 496.5,424.5C492.064,425.414 488.064,427.081 484.5,429.5C482.421,429.971 480.421,430.637 478.5,431.5C474.778,432.017 471.112,432.85 467.5,434C466.944,434.383 466.611,434.883 466.5,435.5C461.543,436.989 456.543,438.323 451.5,439.5C412.074,449.386 372.407,450.053 332.5,441.5L330.5,441.5C328.485,440.076 326.152,439.41 323.5,439.5C321.585,439.784 319.919,439.451 318.5,438.5C316.485,437.076 314.152,436.41 311.5,436.5C296.515,432.838 281.848,428.172 267.5,422.5C265.967,420.755 263.967,419.755 261.5,419.5C250.93,415.879 240.93,411.213 231.5,405.5C229.967,403.755 227.967,402.755 225.5,402.5C222.331,401.083 219.331,399.417 216.5,397.5C216.027,396.094 215.027,395.427 213.5,395.5C196.558,385.869 180.891,374.535 166.5,361.5C164.761,358.757 162.427,356.757 159.5,355.5C142.648,340.646 128.315,323.646 116.5,304.5C128.573,295.936 140.24,286.769 151.5,277C155.495,271.485 159.828,266.318 164.5,261.5C165.922,261.291 167.255,260.791 168.5,260C188.075,239.746 209.408,221.746 232.5,206C246.421,198.335 261.087,192.501 276.5,188.5C296.369,184.491 461.178,183.702 478.5,186C498.614,188.704 517.281,195.371 534.5,206C542.919,211.818 551.252,217.818 559.5,224C573.966,237.295 588.633,250.461 603.5,263.5C604.325,264.386 605.325,264.719 606.5,264.5Z" style="fill:rgb(251,252,252);"/>
        <path d="M593.5,62.5C595.754,63.124 597.421,64.457 598.5,66.5C598.427,68.027 599.094,69.027 600.5,69.5C600.259,71.898 600.926,73.898 602.5,75.5L602.5,76.5C604.227,91.433 604.894,106.433 604.5,121.5L604.5,126.5C603.883,126.611 603.383,126.944 603,127.5C602.594,133.849 602.094,140.183 601.5,146.5L601.5,150.5C600.076,152.515 599.41,154.848 599.5,157.5C595.571,175.345 588.904,192.011 579.5,207.5C576.25,204.071 573.083,200.404 570,196.5C569.506,194.866 569.34,193.199 569.5,191.5C572.031,187.212 574.364,182.879 576.5,178.5C577.906,178.027 578.573,177.027 578.5,175.5C582.026,168.586 584.36,161.253 585.5,153.5C585.557,152.391 585.89,151.391 586.5,150.5C587.117,150.389 587.617,150.056 588,149.5C588.497,146.854 588.664,144.187 588.5,141.5L588.5,139.5C589.924,137.485 590.59,135.152 590.5,132.5C591.194,120.846 591.527,109.18 591.5,97.5C591.997,92.587 590.997,88.087 588.5,84C584.833,83.333 581.167,83.333 577.5,84C570.891,85.977 564.558,88.477 558.5,91.5C556.973,91.427 555.973,92.094 555.5,93.5C541.51,101.656 529.843,112.322 520.5,125.5C519.5,125.833 518.833,126.5 518.5,127.5C517.244,127.904 516.077,128.571 515,129.5C507.677,122.909 499.511,117.409 490.5,113C489.748,112.329 489.414,111.496 489.5,110.5C499.278,101.12 509.611,92.453 520.5,84.5C529.542,78.979 538.876,73.979 548.5,69.5C552.836,69.163 556.503,67.497 559.5,64.5C561.993,63.226 564.659,62.56 567.5,62.5C576.186,61.231 584.853,61.231 593.5,62.5Z" style="fill:rgb(250,250,250);"/>
        <path d="M597.5,720.5L575.5,720.5C574.624,720.631 573.957,720.298 573.5,719.5C577.106,712.621 580.439,705.621 583.5,698.5C592.415,702.577 597.748,709.41 599.5,719C599.164,720.03 598.497,720.53 597.5,720.5Z" style="fill:rgb(164,171,180);"/>
        <path d="M166.5,560.5C165.037,569.146 163.704,577.813 162.5,586.5C161.253,592.63 160.586,598.963 160.5,605.5C158.833,607.5 157.167,609.5 155.5,611.5C135.625,625.704 120.959,644.037 111.5,666.5C98.131,656.467 88.131,643.8 81.5,628.5C101.985,597.579 128.985,574.079 162.5,558C163.793,557.51 165.127,557.343 166.5,557.5L166.5,560.5Z" style="fill:rgb(166,173,181);"/>
        <path d="M66.5,552.5C65.514,548.03 65.18,543.363 65.5,538.5C66.489,524.45 67.989,510.45 70,496.5C71.704,494.627 73.537,492.96 75.5,491.5C96.156,475.248 118.656,461.914 143,451.5C144.261,451.759 145.261,452.426 146,453.5C155.13,465.76 160.963,479.426 163.5,494.5C126.344,505.906 94.011,525.239 66.5,552.5Z" style="fill:rgb(165,172,180);"/>
        <path d="M632.5,517.5C638.62,517.286 644.287,518.786 649.5,522C655.386,526.996 656.053,532.662 651.5,539C640.565,543.291 632.398,540.124 627,529.5C626.333,527.5 626.333,525.5 627,523.5C629.04,521.63 630.873,519.63 632.5,517.5Z" style="fill:rgb(164,172,181);"/>
        <path d="M635.5,481.5C644.267,480.648 652.601,482.148 660.5,486C669.329,492.492 670.829,500.325 665,509.5C655.394,504.855 645.894,500.022 636.5,495C631.696,490.717 631.362,486.217 635.5,481.5Z" style="fill:rgb(165,173,181);"/>
        <path d="M405.5,98.5C409.119,99.244 412.785,99.577 416.5,99.5C438.527,102.63 459.693,108.63 480,117.5C483.613,115.712 486.78,113.379 489.5,110.5C489.414,111.496 489.748,112.329 490.5,113C499.511,117.409 507.677,122.909 515,129.5C516.077,128.571 517.244,127.904 518.5,127.5C517.551,129.777 516.218,131.777 514.5,133.5C514.833,134.167 515.167,134.833 515.5,135.5C531.113,147.45 544.447,161.45 555.5,177.5C559.115,182.955 562.948,188.288 567,193.5C567.708,192.619 568.542,191.953 569.5,191.5C569.34,193.199 569.506,194.866 570,196.5C573.083,200.404 576.25,204.071 579.5,207.5C578.677,209.455 578.51,211.455 579,213.5C585.642,231.986 594.809,248.986 606.5,264.5C605.325,264.719 604.325,264.386 603.5,263.5C588.633,250.461 573.966,237.295 559.5,224C551.252,217.818 542.919,211.818 534.5,206C517.281,195.371 498.614,188.704 478.5,186C461.178,183.702 444.845,186.536 429.5,194.5C410.901,210.351 402.901,230.351 405.5,254.5C404.426,262.798 404.26,271.132 405,279.5C406.788,284.313 408.121,289.313 409,294.5C410.421,296.405 411.588,298.405 412.5,300.5C411.542,300.047 410.708,299.381 410,298.5C410.114,303.589 410.281,308.756 410.5,314C410.443,319.082 409.776,323.915 408.5,328.5C396.029,324.653 383.362,323.653 370.5,325.5C365.155,326.171 360.155,327.837 355.5,330.5C355.193,321.113 355.527,311.78 356.5,302.5C355.767,301.913 354.767,301.913 353.5,302.5C358.954,294.684 361.954,286.018 362.5,276.5C364.26,267.409 363.593,258.409 360.5,249.5C361.966,250.347 362.8,251.68 363,253.5C366.687,226.807 357.187,206.641 334.5,193C315.703,185.991 296.369,184.491 276.5,188.5C261.087,192.501 246.421,198.335 232.5,206C209.408,221.746 188.075,239.746 168.5,260C167.255,260.791 165.922,261.291 164.5,261.5C175.895,246.226 184.895,229.559 191.5,211.5C190.828,209.47 190.162,207.47 189.5,205.5C190.978,205.762 192.311,205.429 193.5,204.5C195.798,200.896 197.798,197.23 199.5,193.5C202.168,192.543 203.668,190.543 204,187.5C217.612,167.56 233.612,149.894 252,134.5C252.195,133.181 252.028,131.847 251.5,130.5C255.828,128.372 259.828,125.539 263.5,122C268.938,119.051 273.938,115.551 278.5,111.5C277.37,110.378 276.703,109.044 276.5,107.5C280.05,110.975 283.717,114.475 287.5,118C288.333,118.167 289.167,118.333 290,118.5C301.608,113.006 313.441,108.339 325.5,104.5C334.031,102.189 342.698,100.522 351.5,99.5L353.5,99.5C355.978,100.164 358.645,100.497 361.5,100.5C376.333,99.98 390.999,99.313 405.5,98.5Z" style="fill:rgb(166,173,181);"/>
        <path d="M453.5,720.5L375.5,720.5C375.813,716.958 375.479,713.625 374.5,710.5C373.323,708.321 372.323,705.987 371.5,703.5C369.515,700.077 367.348,696.744 365,693.5C360.693,691.018 356.86,688.018 353.5,684.5C354.879,671.497 354.379,658.497 352,645.5C348.245,631.685 344.245,618.018 340,604.5C336.958,585.955 335.125,567.288 334.5,548.5C333.871,526.387 337.371,505.054 345,484.5C347.5,481.333 350,478.167 352.5,475C354.199,474.042 356.033,473.542 358,473.5C375.993,479.637 394.493,482.137 413.5,481C434.019,478.217 453.019,471.384 470.5,460.5C471.672,460.919 472.672,461.585 473.5,462.5C475.644,466.62 477.644,470.786 479.5,475C492.055,516.886 496.555,559.72 493,603.5C490.237,635.831 482.07,666.665 468.5,696C463.081,704.023 458.081,712.19 453.5,720.5Z" style="fill:rgb(254,254,254);"/>
        <path d="M193.5,60.5C200.616,62.094 207.616,64.094 214.5,66.5C216.033,68.245 218.033,69.245 220.5,69.5C240.869,79.682 259.535,92.349 276.5,107.5C276.703,109.044 277.37,110.378 278.5,111.5C273.938,115.551 268.938,119.051 263.5,122C259.828,125.539 255.828,128.372 251.5,130.5C248.352,127.148 245.518,123.482 243,119.5C230.538,105.723 216.038,95.056 199.5,87.5C197.898,85.926 195.898,85.259 193.5,85.5C190.517,85.102 187.517,84.768 184.5,84.5C182.359,84.613 180.525,85.28 179,86.5C175.878,104.798 175.711,123.131 178.5,141.5C178.41,144.152 179.076,146.485 180.5,148.5C184.678,164.354 191.011,179.354 199.5,193.5C197.798,197.23 195.798,200.896 193.5,204.5C192.311,205.429 190.978,205.762 189.5,205.5C185.394,199.377 181.561,193.044 178,186.5C176.855,183.568 176.022,180.568 175.5,177.5C174.505,173.518 173.505,169.518 172.5,165.5C172.253,164.287 171.586,163.62 170.5,163.5C169.071,160.692 168.405,157.692 168.5,154.5C168.741,152.102 168.074,150.102 166.5,148.5C162.04,124.573 161.54,100.573 165,76.5C165.39,73.896 166.224,71.563 167.5,69.5C168.906,69.027 169.573,68.027 169.5,66.5C170.911,64.086 172.911,62.419 175.5,61.5C181.464,60.693 187.464,60.36 193.5,60.5Z" style="fill:rgb(248,249,249);"/>
        <path d="M681.5,349.5C680.076,351.515 679.41,353.848 679.5,356.5C678.501,359.829 677.501,363.162 676.5,366.5C673.482,366.296 670.482,365.963 667.5,365.5C664.275,364.193 660.941,363.193 657.5,362.5C655.824,360.166 653.491,359.166 650.5,359.5C648.214,357.925 647.881,355.925 649.5,353.5C654.295,339.917 659.628,326.583 665.5,313.5C667.834,311.824 668.834,309.491 668.5,306.5C669.108,303.673 670.108,301.007 671.5,298.5C674.165,296.165 675.498,293.165 675.5,289.5C676.084,284.529 678.251,280.529 682,277.5C688.658,279.552 695.158,281.885 701.5,284.5C694.34,305.922 687.673,327.589 681.5,349.5Z" style="fill:rgb(249,249,249);"/>
        <path d="M370.5,325.5C379.324,326.33 388.324,326.83 397.5,327C401.459,328.494 405.459,329.994 409.5,331.5C410.107,331.376 410.44,331.043 410.5,330.5C411.391,331.11 412.391,331.443 413.5,331.5C415.461,333.963 417.628,336.297 420,338.5C425.32,357.065 419.487,370.731 402.5,379.5C398.616,380.793 394.616,381.459 390.5,381.5L390.5,399.5C396.871,399.938 402.871,398.938 408.5,396.5C418.837,393.165 428.17,387.998 436.5,381C444.211,380.378 447.378,383.878 446,391.5C443.872,394.63 441.372,397.463 438.5,400C430.019,405.24 421.019,409.406 411.5,412.5C409.435,412.517 407.435,412.85 405.5,413.5C393.166,413.654 380.666,413.321 368,412.5C366.5,412.667 365,412.833 363.5,413C365.382,413.198 367.048,413.698 368.5,414.5C350.946,413.24 336.113,406.24 324,393.5C320.261,382.908 323.761,379.075 334.5,382C339.679,388.029 346.013,392.196 353.5,394.5C355.617,396.655 358.284,397.655 361.5,397.5C366.583,399.078 371.916,399.745 377.5,399.5L377.5,381.5L373.5,381.5C357.873,378.54 348.54,369.207 345.5,353.5C345.552,349.802 345.886,346.135 346.5,342.5C347.64,340.22 348.807,337.886 350,335.5C352.328,334.336 354.162,332.67 355.5,330.5C360.155,327.837 365.155,326.171 370.5,325.5Z" style="fill:rgb(37,49,60);"/>
        <path d="M591.5,97.5C590.21,96.942 589.377,95.942 589,94.5C589.45,113.509 587.95,132.343 584.5,151C584.528,152.07 584.861,152.903 585.5,153.5C584.36,161.253 582.026,168.586 578.5,175.5C577.094,175.973 576.427,176.973 576.5,178.5C574.364,182.879 572.031,187.212 569.5,191.5C568.542,191.953 567.708,192.619 567,193.5C562.948,188.288 559.115,182.955 555.5,177.5C556.239,177.631 556.906,177.464 557.5,177C547.65,163.142 536.316,150.475 523.5,139C516.223,136.037 515.556,131.87 521.5,126.5C521.376,125.893 521.043,125.56 520.5,125.5C529.843,112.322 541.51,101.656 555.5,93.5C557.027,93.573 558.027,92.906 558.5,91.5C564.558,88.477 570.891,85.977 577.5,84C581.167,83.333 584.833,83.333 588.5,84C590.997,88.087 591.997,92.587 591.5,97.5Z" style="fill:rgb(36,49,59);"/>
        <path d="M193.5,85.5C195.102,87.074 197.102,87.741 199.5,87.5C216.038,95.056 230.538,105.723 243,119.5C245.518,123.482 248.352,127.148 251.5,130.5C252.028,131.847 252.195,133.181 252,134.5C233.612,149.894 217.612,167.56 204,187.5C203.668,190.543 202.168,192.543 199.5,193.5C191.011,179.354 184.678,164.354 180.5,148.5C180.59,145.848 179.924,143.515 178.5,141.5C175.711,123.131 175.878,104.798 179,86.5C180.525,85.28 182.359,84.613 184.5,84.5C187.517,84.768 190.517,85.102 193.5,85.5Z" style="fill:rgb(36,48,59);"/>
        <path d="M282.5,215.5C281.737,216.268 280.737,216.768 279.5,217C280.167,217.167 280.833,217.333 281.5,217.5C288.249,216.05 295.082,215.383 302,215.5C325.953,214.471 343.953,224.138 356,244.5C356.384,242.803 356.218,241.137 355.5,239.5C357.912,242.368 359.579,245.701 360.5,249.5C363.593,258.409 364.26,267.409 362.5,276.5C362.666,270.491 362.499,264.491 362,258.5C362.415,273.286 359.415,287.286 353,300.5C350.872,303.63 348.372,306.463 345.5,309C346.094,309.464 346.761,309.631 347.5,309.5C344.026,312.802 340.359,315.968 336.5,319C321.643,328.261 307.309,338.261 293.5,349C279.891,357.311 265.224,362.478 249.5,364.5C241.799,364.691 234.132,364.358 226.5,363.5C221.763,362.923 217.096,361.923 212.5,360.5C208.388,358.241 204.054,356.574 199.5,355.5C197.967,353.755 195.967,352.755 193.5,352.5C190.904,351.243 188.237,350.076 185.5,349C170.446,339.235 156.279,328.401 143,316.5C142.333,315.5 142.333,314.5 143,313.5C151.908,306.962 161.074,300.795 170.5,295C178.833,288 187.167,281 195.5,274C210.315,258.509 226.315,244.509 243.5,232C250.993,227.17 258.827,223.004 267,219.5C272.085,217.771 277.252,216.437 282.5,215.5ZM314.5,262.5C315.741,267.177 315.741,271.843 314.5,276.5C311.016,283.509 305.349,286.009 297.5,284C292.304,280.974 289.97,276.474 290.5,270.5C291.645,256.525 298.645,252.358 311.5,258C313.141,259.129 314.141,260.629 314.5,262.5Z" style="fill:rgb(37,49,60);"/>
        <path d="M464.766,213.5C470.344,213.511 475.922,213.844 481.5,214.5L490.5,216.5C493.505,218.277 496.838,219.277 500.5,219.5C502.033,221.245 504.033,222.245 506.5,222.5C521.836,230.513 535.836,240.513 548.5,252.5C549.585,254.587 551.251,255.92 553.5,256.5C562.049,265.883 571.049,274.716 580.5,283C593.248,293.59 606.915,302.757 621.5,310.5C622.23,311.712 623.23,312.712 624.5,313.5C623.37,314.622 622.703,315.956 622.5,317.5C608.878,330.296 594.211,341.63 578.5,351.5C574.407,352.382 570.74,354.049 567.5,356.5C565.597,356.796 563.93,357.463 562.5,358.5C559.284,358.345 556.617,359.345 554.5,361.5C552.435,361.517 550.435,361.85 548.5,362.5C550.054,361.105 549.721,360.439 547.5,360.5C536.06,361.924 524.727,362.924 513.5,363.5C511.139,363.326 508.806,362.993 506.5,362.5C504.901,362.768 503.568,362.434 502.5,361.5C499.061,359.796 495.395,358.462 491.5,357.5C474.591,349.709 458.924,339.875 444.5,328C432.567,322.237 422.567,314.07 414.5,303.5C414.573,301.973 413.906,300.973 412.5,300.5C411.588,298.405 410.421,296.405 409,294.5C408.121,289.313 406.788,284.313 405,279.5C404.26,271.132 404.426,262.798 405.5,254.5C412.102,233.228 426.102,219.894 447.5,214.5C453.166,213.834 458.833,213.5 464.5,213.5L464.766,213.5ZM472.5,259.5C472.427,261.027 473.094,262.027 474.5,262.5C479.494,277.995 473.827,285.162 457.5,284C453.2,280.898 450.867,276.731 450.5,271.5C450.833,268.833 451.167,266.167 451.5,263.5C452.183,259.981 454.183,257.481 457.5,256C461.167,255.333 464.833,255.333 468.5,256C469.949,257.102 471.282,258.269 472.5,259.5Z" style="fill:rgb(36,49,60);"/>
    </g>
</svg>
